<?xml version="1.0" encoding="utf-8"?>
<!-- Generator: Adobe Illustrator 16.0.0, SVG Export Plug-In . SVG Version: 6.00 Build 0)  -->
<!DOCTYPE svg PUBLIC "-//W3C//DTD SVG 1.1 Basic//EN" "http://www.w3.org/Graphics/SVG/1.1/DTD/svg11-basic.dtd">
<svg version="1.1" baseProfile="basic" id="Layer_1"
	 xmlns="http://www.w3.org/2000/svg" xmlns:xlink="http://www.w3.org/1999/xlink" x="0px" y="0px" width="150px" height="25px"
	 viewBox="0 0 150 25" xml:space="preserve">
<g>
	<g id="Owl">
		<g>
			<path fill="none" stroke="#5F6C70" stroke-width="7.6162" d="M16.248,1.887"/>
			<path fill="#FFFFFF" d="M14.329,12.174c1.145,3.102,4.595,4.69,7.698,3.547c3.101-1.15,4.692-4.597,3.543-7.7
				c-1.146-3.107-4.591-4.692-7.698-3.546C14.767,5.623,13.182,9.069,14.329,12.174z"/>
			<circle fill="#FFFFFF" cx="6.667" cy="10.074" r="5.992"/>
			<path fill="#BE3538" d="M7.688,10.011c0,0.611-0.496,1.111-1.107,1.111c-0.613,0-1.108-0.5-1.108-1.111
				c0-0.61,0.495-1.104,1.108-1.104C7.192,8.906,7.688,9.401,7.688,10.011z"/>
			<path fill="#589442" d="M21.042,10.011c0,0.611-0.494,1.111-1.105,1.111c-0.615,0-1.108-0.5-1.108-1.111
				c0-0.61,0.493-1.104,1.108-1.104C20.548,8.906,21.042,9.401,21.042,10.011z"/>
			<g>
				<path d="M3.289,10.011c0,1.817,1.478,3.292,3.294,3.292c1.812,0,3.289-1.475,3.289-3.292c0-1.812-1.478-3.288-3.289-3.288
					C4.767,6.724,3.289,8.198,3.289,10.011z M4.424,10.011c0-1.188,0.971-2.155,2.161-2.155c1.188,0,2.154,0.968,2.154,2.155
					c0,1.192-0.966,2.16-2.154,2.16C5.395,12.172,4.424,11.204,4.424,10.011z"/>
			</g>
			<g>
				<path d="M16.644,10.011c0,1.817,1.476,3.292,3.292,3.292c1.813,0,3.288-1.475,3.288-3.292c0-1.812-1.475-3.288-3.288-3.288
					C18.121,6.724,16.644,8.198,16.644,10.011z M17.779,10.011c0-1.188,0.968-2.155,2.159-2.155c1.188,0,2.153,0.968,2.153,2.155
					c0,1.192-0.965,2.16-2.153,2.16C18.746,12.172,17.779,11.204,17.779,10.011z"/>
			</g>
			<g>
				<path fill="none" d="M15.517,13.016c0.54,0.824,1.29,1.489,2.206,1.912c1.291,0.596,2.737,0.652,4.07,0.161
					c2.752-1.019,4.166-4.083,3.149-6.833c-1.017-2.752-4.081-4.164-6.834-3.149c-1.333,0.492-2.395,1.475-2.991,2.766
					c-0.398,0.864-0.532,1.799-0.443,2.722"/>
				<g>
					<path fill="#FFD881" d="M17.641,3.844c0.694-0.256,1.404-0.38,2.105-0.399c-1.91-0.856-4.072-1.289-6.467-1.289
						c-2.377,0-4.57,0.444-6.479,1.259c3.455,0.069,6.264,2.775,6.506,6.185c0.059-0.783,0.25-1.557,0.588-2.29
						C14.639,5.69,15.971,4.46,17.641,3.844z"/>
				</g>
			</g>
			<path d="M25.307,6.137c0.312-1.337,1.304-2.676,1.304-2.676l-4.449-0.003c-2.495-1.611-5.524-2.465-8.881-2.465
				c-3.484,0-6.63,0.875-9.111,2.497L0,3.493c0,0,0.98,1.324,1.297,2.652c-0.811,1.102-1.293,2.458-1.293,3.929
				c0,3.674,2.99,6.662,6.665,6.662c2.101,0,3.974-0.979,5.196-2.5l1.419,2.125l1.43-2.143c0.643,0.818,1.473,1.482,2.446,1.932
				c1.618,0.744,3.431,0.817,5.1,0.201c3.448-1.276,5.218-5.119,3.943-8.563C25.979,7.182,25.673,6.632,25.307,6.137z M13.28,2.156
				c2.395,0,4.557,0.433,6.467,1.289c-0.702,0.019-1.411,0.144-2.105,0.399c-1.67,0.616-3.002,1.846-3.745,3.465
				c-0.338,0.733-0.529,1.507-0.588,2.29c-0.244-3.409-3.053-6.115-6.508-6.185C8.709,2.599,10.902,2.156,13.28,2.156z
				 M11.072,13.052c-0.957,1.411-2.575,2.341-4.405,2.341c-2.934,0-5.321-2.389-5.321-5.318c0-2.935,2.388-5.32,5.321-5.32
				s5.32,2.385,5.32,5.32c0,0.179-0.035,0.348-0.053,0.521C11.845,11.496,11.556,12.339,11.072,13.052z M21.793,15.09
				c-1.333,0.491-2.779,0.436-4.07-0.16c-0.916-0.424-1.666-1.089-2.206-1.914c-0.22-0.334-0.414-0.689-0.556-1.076
				c-0.162-0.438-0.243-0.89-0.287-1.345c-0.089-0.923,0.045-1.858,0.443-2.722c0.596-1.291,1.658-2.274,2.991-2.766
				c2.753-1.015,5.817,0.397,6.834,3.149C25.958,11.007,24.545,14.07,21.793,15.09z"/>
		</g>
	</g>
	<g id="Spain">
		<g>
			<g>
				<path fill="#589442" d="M95.578,2.059c0,0.71,0.578,1.286,1.287,1.286c0.713,0,1.287-0.576,1.287-1.286
					c0-0.709-0.576-1.288-1.287-1.288C96.156,0.77,95.578,1.349,95.578,2.059z"/>
				<g>
					<path d="M34.471,1.968L32.52,2.642c0,0,0,2.336,0,2.545c-0.204,0-2.162,0-2.162,0v1.707c0,0,1.897,0,2.103,0
						c0,0.221,0,5.479,0,5.479c0,2.605,0.887,3.672,3.067,3.672c0.553,0,1.081-0.068,1.611-0.212l0.086-0.022l-0.024-1.769
						l-0.149,0.056c-0.429,0.149-0.764,0.221-1.023,0.221c-1.024,0-1.404-0.577-1.404-2.13c0,0,0-5.075,0-5.293
						c0.208,0,2.495,0,2.495,0V5.187c0,0-2.286,0-2.495,0c0-0.211,0-3.269,0-3.269L34.471,1.968z"/>
					<path d="M41.215,6.915c0-0.6,0-1.729,0-1.729h-1.979v10.671H41.4V10.5c0-2.245,0.943-3.482,2.653-3.482
						c0.248,0,0.488,0.037,0.781,0.12l0.14,0.04l0.071-2.107L44.114,5C42.86,4.999,41.847,5.678,41.215,6.915z"/>
					<g>
						<path d="M56.657,4.936c-1.485,0-2.733,0.703-3.566,1.982c0-0.511,0-1.733,0-1.733h-1.978v15.017h2.165c0,0,0-5.244,0-5.822
							c0.781,1.062,1.901,1.646,3.295,1.646c2.735,0,4.502-2.244,4.502-5.71C61.076,7.097,59.299,4.936,56.657,4.936z
							 M56.053,14.275c-1.712,0-2.775-1.462-2.775-3.815c0-2.268,1.122-3.735,2.858-3.735c1.673,0,2.673,1.389,2.673,3.713
							C58.809,12.805,57.752,14.275,56.053,14.275z"/>
					</g>
				</g>
				<g>
					<g>
						<path fill="#589442" d="M67.4,4.936c-1.323,0-2.482,0.25-3.545,0.76l-0.066,0.033l0.023,1.846l0.17-0.095
							c1.016-0.569,1.978-0.859,2.854-0.859c1.567,0,2.467,0.899,2.467,2.468c0,0,0,0.045,0,0.091c-0.191,0-1.238,0-1.238,0
							c-3.562,0-5.522,1.29-5.522,3.63c0,1.879,1.415,3.193,3.44,3.193c1.49,0,2.643-0.586,3.465-1.688c0,0.428,0,1.541,0,1.541
							h1.955V9.398C71.402,6.439,70.056,4.936,67.4,4.936z M69.3,11.352c0,1.837-1.106,3.027-2.817,3.027
							c-1.048,0-1.779-0.689-1.779-1.674c0-1.295,1.238-2.006,3.485-2.006c0,0,0.926,0,1.113,0C69.3,10.864,69.3,11.352,69.3,11.352
							z"/>
					</g>
					<g>
						<path fill="#589442" d="M80.592,0.091c0,0,0,5.949,0,6.543c-0.798-1.109-1.908-1.697-3.334-1.697
							c-2.647,0-4.426,2.179-4.426,5.419c0,3.337,1.804,5.667,4.382,5.667c1.527,0,2.718-0.676,3.544-1.991c0,0.532,0,1.825,0,1.825
							h2V0.091H80.592z M77.775,14.232c-1.649,0-2.673-1.438-2.673-3.752c0-2.318,1.033-3.816,2.634-3.816
							c1.787,0,2.855,1.425,2.855,3.816C80.592,12.763,79.49,14.232,77.775,14.232z"/>
					</g>
					<path fill="#589442" d="M92.426,5.186l-3.068,6.161l-2.836-6.161h-2.439l5.23,10.671l5.371-10.671H92.426z"/>
					<path fill="#589442" d="M97.834,5.186h-2.049v10.671h2.166V5.186H97.834z"/>
					<path fill="#589442" d="M100.488,7.922c0,1.501,1.031,2.291,2.936,3.223c1.201,0.59,1.828,0.937,1.828,1.768
						c0,0.853-0.77,1.405-1.967,1.405c-0.846,0-1.785-0.239-2.715-0.696l-0.158-0.077l-0.07,1.88l0.072,0.028
						c0.889,0.354,1.824,0.527,2.789,0.527c2.646,0,4.355-1.261,4.355-3.213c0-1.627-1.082-2.452-2.957-3.327
						c-1.373-0.645-1.949-1.022-1.949-1.705c0-0.649,0.641-1.071,1.631-1.071c0.895,0,1.768,0.199,2.594,0.593l0.156,0.072
						l0.094-1.841l-0.086-0.025c-0.896-0.266-1.781-0.4-2.633-0.4C102.064,5.061,100.488,6.211,100.488,7.922z"/>
					<g>
						<path fill="#589442" d="M114.309,4.936c-3.252,0-5.271,2.14-5.271,5.585s2.021,5.583,5.271,5.583
							c3.266,0,5.295-2.139,5.295-5.583S117.574,4.936,114.309,4.936z M114.328,14.338c-1.797,0-3.004-1.542-3.004-3.838
							c0-2.307,1.207-3.856,3.004-3.856c1.826,0,3.006,1.514,3.006,3.856C117.334,12.831,116.156,14.338,114.328,14.338z"/>
					</g>
					<path fill="#589442" d="M123.596,6.915c0-0.6,0-1.729,0-1.729h-1.979v10.671h2.164V10.5c0-2.245,0.938-3.482,2.65-3.482
						c0.246,0,0.486,0.037,0.773,0.12l0.145,0.04l0.068-2.107L126.49,5C125.24,4.999,124.229,5.678,123.596,6.915z"/>
				</g>
				<path d="M48.901,5.186h-2.048v10.671h2.164V5.186H48.901z"/>
				<path d="M46.643,2.059c0,0.71,0.579,1.286,1.287,1.286c0.71,0,1.287-0.576,1.287-1.286c0-0.709-0.577-1.288-1.287-1.288
					C47.222,0.77,46.643,1.349,46.643,2.059z"/>
				<path fill="#ABC99F" d="M132.578,4.714c0.355,0.359,0.541,0.837,0.541,1.351c0,0.537-0.201,1.017-0.57,1.372
					c-0.385,0.366-0.863,0.561-1.361,0.561c-0.521,0-1-0.205-1.373-0.59c-0.357-0.369-0.557-0.84-0.557-1.344
					c0-0.514,0.205-1.012,0.588-1.39c0.359-0.352,0.822-0.544,1.342-0.544C131.721,4.13,132.207,4.331,132.578,4.714z
					 M130.086,4.926c-0.312,0.312-0.479,0.714-0.479,1.139c0,0.414,0.154,0.794,0.453,1.097c0.299,0.312,0.697,0.482,1.121,0.482
					c0.414,0,0.811-0.159,1.119-0.457c0.301-0.29,0.467-0.688,0.467-1.123c0-0.425-0.154-0.811-0.447-1.108
					c-0.307-0.311-0.697-0.476-1.131-0.476C130.76,4.48,130.385,4.633,130.086,4.926z M131.223,4.962
					c0.605,0,0.916,0.219,0.916,0.616c0,0.274-0.162,0.486-0.451,0.573l0.475,0.93h-0.643l-0.398-0.84h-0.168v0.84h-0.584v-2.12
					L131.223,4.962L131.223,4.962z M130.951,5.896h0.203c0.26,0,0.385-0.091,0.385-0.274c0-0.208-0.131-0.293-0.416-0.293h-0.172
					V5.896L130.951,5.896z"/>
			</g>
		</g>
		<polygon fill="#676768" points="103.201,19.219 103.201,19.667 100.963,19.667 100.963,21.7 103.078,21.7 103.078,22.176 
			100.963,22.176 100.963,24.383 103.248,24.383 103.248,24.87 100.439,24.87 100.439,19.219 		"/>
		<path fill="#676768" d="M107.125,19.893c-0.316-0.164-0.652-0.244-1.012-0.244c-0.805,0-1.24,0.351-1.24,0.879
			c0,0.572,0.521,0.805,1.338,1.279c0.773,0.45,1.232,0.768,1.232,1.524c0,0.918-0.713,1.578-1.812,1.578
			c-0.438,0-0.883-0.087-1.287-0.259l0.064-0.588c0.438,0.233,0.848,0.369,1.229,0.369c0.77,0,1.238-0.438,1.238-1.056
			c0-0.646-0.521-0.867-1.328-1.335c-0.773-0.455-1.215-0.79-1.215-1.49c0-0.857,0.637-1.38,1.787-1.38
			c0.357,0,0.709,0.065,1.076,0.19L107.125,19.893z"/>
		<path fill="#676768" d="M109.828,19.219c1.256,0,1.92,0.562,1.92,1.586c0,1.01-0.719,1.637-2.016,1.637h-0.566v2.43h-0.52v-5.652
			H109.828z M109.166,21.971h0.562c0.938,0,1.441-0.44,1.441-1.174c0-0.693-0.475-1.115-1.299-1.115h-0.711v2.289H109.166z"/>
		<path fill="#676768" d="M114.365,19.219l2.246,5.65h-0.572l-0.598-1.538h-2.891l-0.598,1.538h-0.539l2.305-5.65H114.365z
			 M112.762,22.857h2.49l-1.223-3.168L112.762,22.857z"/>
		<path fill="#676768" d="M118,19.221l2.771,4.739c0.031,0.045,0.086,0.17,0.168,0.392c-0.027-0.207-0.045-0.379-0.045-0.507v-4.624
			h0.488v5.649h-0.643l-2.807-4.78c-0.074-0.125-0.123-0.261-0.164-0.414c0.033,0.27,0.049,0.436,0.049,0.494v4.7h-0.484v-5.649H118
			z M120.512,17.63c-0.139,0.481-0.395,0.718-0.762,0.718c-0.088,0-0.17-0.018-0.262-0.043l-0.383-0.113
			c-0.072-0.026-0.139-0.033-0.215-0.033c-0.152,0-0.285,0.1-0.369,0.285h-0.314c0.115-0.471,0.385-0.721,0.77-0.721
			c0.082,0,0.156,0.006,0.221,0.029l0.383,0.123c0.082,0.025,0.15,0.04,0.221,0.04c0.178,0,0.301-0.089,0.383-0.285H120.512z"/>
		<path fill="#676768" d="M125.188,19.219l2.248,5.65h-0.574l-0.596-1.538h-2.893l-0.6,1.538h-0.535l2.303-5.65H125.188z
			 M123.586,22.857h2.49l-1.225-3.168L123.586,22.857z"/>
	</g>
</g>
</svg>
